<svg width="78" height="26" fill="none" xmlns="http://www.w3.org/2000/svg"><path d="M6.2 20.3V4.62H1.46V20.3H6.2z" fill="url(#paint0_linear)"/><path d="M7.11 0H1.46v4.62h6.37c2.98 0 5.14.66 6.48 1.98 1.5 1.47 2.24 3.54 2.24 6.21 0 1.74-.3 3.02-.94 4.2a5.7 5.7 0 01-2.43 2.54c-.98.5-2.56.75-4.75.75H1.46v4.87H7.2c3.26 0 5.55-.21 6.87-.62a9.36 9.36 0 003.68-2.22 10.96 10.96 0 002.67-4.04c.65-1.63.98-3.42.98-5.36 0-2.72-.58-5.1-1.73-7.15a10.57 10.57 0 00-4.4-4.41C13.5.46 10.77 0 7.11 0zM1.46 0v4.62C.66 4.62 0 3.97 0 3.16v-1.7C0 .66.65 0 1.46 0z" fill="#03C1CF"/><path d="M41.22 17.9H28.29a4.35 4.35 0 001.49 2.72c.81.67 1.85 1 3.1 1 1.51 0 2.8-.52 3.89-1.57l3.39 1.6a8.07 8.07 0 01-3.04 2.66 9.57 9.57 0 01-4.2.86c-2.52 0-4.57-.8-6.15-2.38a8.13 8.13 0 01-2.37-5.97c0-2.45.78-4.48 2.36-6.09A7.96 7.96 0 0132.7 8.3c2.52 0 4.58.8 6.16 2.43 1.58 1.61 2.38 3.74 2.38 6.4l-.02.77zm-4.04-3.17c-.27-.9-.8-1.63-1.58-2.19a4.52 4.52 0 00-2.71-.84 4.8 4.8 0 00-2.95.95 5.26 5.26 0 00-1.47 2.08h8.71zM42.77 8.71h4.1l4.05 9.47 4.04-9.47h4.09l-6.83 16.04h-2.61L42.77 8.71zM68.96 8.3c1.51 0 2.93.38 4.26 1.13a8.28 8.28 0 014.25 7.28c0 1.52-.38 2.94-1.14 4.25a8.14 8.14 0 01-3.07 3.1 8.53 8.53 0 01-4.29 1.1c-2.3 0-4.27-.81-5.9-2.44a8.18 8.18 0 01-2.43-5.97c0-2.51.92-4.6 2.76-6.27a8.05 8.05 0 015.56-2.18zm.06 3.79c-1.25 0-2.3.43-3.13 1.3a4.63 4.63 0 00-1.24 3.34c0 1.4.4 2.53 1.22 3.4.83.86 1.87 1.29 3.13 1.29 1.26 0 2.3-.44 3.14-1.31.84-.88 1.25-2 1.25-3.38s-.4-2.5-1.23-3.35a4.13 4.13 0 00-3.14-1.3z" fill="#000"/><defs><linearGradient id="paint0_linear" x1="3.83" y1="4.62" x2="3.83" y2="20.3" gradientUnits="userSpaceOnUse"><stop stop-color="#7E7E7E" stop-opacity="0"/><stop offset=".92" stop-color="#03C1CF"/></linearGradient></defs></svg>