<svg width="277" height="221" fill="none" xmlns="http://www.w3.org/2000/svg"><g clip-path="url(#clip0)"><path d="M261.53 114.79c5.7-8.96 3.53-20.59-2.53-24.48-6.05-3.9-17.46-1-23.15 7.97-5.28 8.29-3.53 19.04 1.28 23.5a.74.74 0 00-.26.1l-1.41.88a.75.75 0 000 1.27l3.03 1.86a.74.74 0 001.13-.58l.14-1.66-.01-.18c6.04 2.56 16.5-.37 21.78-8.68z" fill="#03C1CF"/><path d="M258.64 97.11c.92 2.99.68 6.21-.67 9.03-1.36 2.81-3.72 5-6.63 6.12-.66.26-.37 1.34.3 1.08a13.42 13.42 0 007.29-6.66c1.5-3.07 1.78-6.6.78-9.87-.2-.69-1.28-.4-1.07.3z" fill="#fff"/><path opacity=".15" d="M55.3 82.2c5.88-7.91 16.65-9.82 22-5.8 5.34 4.01 6.57 14.93.69 22.85-5.44 7.32-15.3 9.32-20.73 6.58a.7.7 0 010 .25l-.3 1.53a.7.7 0 01-.45.51.69.69 0 01-.66-.1l-2.6-2.04a.7.7 0 01.14-1.17l1.4-.67.14-.05c-4.18-4.45-5.08-14.55.37-21.9z" fill="#000"/><path d="M68.17 79.21a11.35 11.35 0 00-7.24 4.34 11.48 11.48 0 00-2.28 8.16c.06.66-.97.66-1.04 0-.3-3.14.6-6.28 2.5-8.78 1.91-2.5 4.69-4.2 7.78-4.72.65-.12.93.89.28 1z" fill="#fff"/><path d="M203.29 193.93c4.62-7.27 2.86-16.7-2.06-19.87-4.9-3.16-14.16-.8-18.78 6.47-4.28 6.73-2.87 15.45 1.03 19.07a.6.6 0 00-.2.08l-1.15.72a.6.6 0 00-.28.52.6.6 0 00.28.51l2.46 1.5a.6.6 0 00.81-.17c.06-.09.1-.19.1-.3l.12-1.34-.01-.15c4.9 2.07 13.4-.3 17.68-7.04z" fill="#F2F2F2"/><path d="M273.13 29.72H3.87A3.86 3.86 0 000 33.6v183.5A3.9 3.9 0 003.87 221h269.26a3.86 3.86 0 003.87-3.9V33.6a3.9 3.9 0 00-3.87-3.88zm2.76 187.39a2.78 2.78 0 01-2.76 2.78H3.87a2.75 2.75 0 01-2.76-2.78V33.6a2.79 2.79 0 012.76-2.78h269.26a2.76 2.76 0 012.76 2.78v183.5z" fill="#3F3D56"/><path d="M276.45 45.3H.55v1.12h275.9v-1.11zM9.95 41.4c1.83 0 3.32-1.5 3.32-3.34a3.33 3.33 0 00-3.32-3.34 3.33 3.33 0 00-3.32 3.34 3.33 3.33 0 003.32 3.33zM19.49 41.4c1.83 0 3.32-1.5 3.32-3.34a3.33 3.33 0 00-3.32-3.34 3.33 3.33 0 00-3.32 3.34 3.33 3.33 0 003.32 3.33zM29.03 41.4c1.83 0 3.31-1.5 3.31-3.34a3.33 3.33 0 00-3.31-3.34 3.33 3.33 0 00-3.32 3.34 3.33 3.33 0 003.32 3.33z" fill="#3F3D56"/><path d="M137.43 102.7c6.23 0 11.28-5.09 11.28-11.36S143.66 80 137.43 80a11.32 11.32 0 00-11.29 11.35c0 6.27 5.06 11.35 11.29 11.35z" fill="#2F2E41"/><path d="M156.56 200.98l-4.1 2-9.63-14.95 6.05-2.96 7.68 15.9z" fill="#FFB8B8"/><path d="M148.97 203.23l7.9-3.86 2.42 5-12.88 6.3a5.6 5.6 0 012.56-7.44zM148.38 200.59a1.69 1.69 0 01-1.07-.38c-.2-.16-.36-.36-.47-.6l-11-21.92a1.82 1.82 0 01.44-2.19l6.12-5.18a1.7 1.7 0 012.25.03c.2.18.37.41.47.67l9.4 23.75a1.82 1.82 0 01-.6 2.11l-4.52 3.37c-.3.22-.65.34-1.02.34z" fill="#2F2E41"/><path d="M144.48 211.52l-4.2 1.78-8.83-15.44 6.2-2.63 6.83 16.3z" fill="#FFB8B8"/><path d="M136.77 213.37l8.1-3.44 2.15 5.13-13.2 5.6a5.6 5.6 0 012.95-7.3zM137.78 211.47a1.65 1.65 0 01-1.45-.85 359.93 359.93 0 01-11.08-21.75c-6.42-13.59 7.8-28.65 10.72-31.53a1.3 1.3 0 00.38-1l-.63-11.44a1.68 1.68 0 011.4-1.75l16.79-2.74a1.7 1.7 0 011.57.6c2.83 3.46 4.05 7.19 3.62 11.07-.89 7.93-8.31 13.91-9.16 14.57l-.1.09-15.2 14.57a1.3 1.3 0 00-.3 1.44l9.4 23.2a1.68 1.68 0 01-.57 2l-4.4 3.2c-.29.21-.63.32-.99.32z" fill="#2F2E41"/><path d="M123.08 132.87c-.38 0-.75-.13-1.04-.36l-13.55-10.7a4.06 4.06 0 01-4.64-1.49 4.13 4.13 0 013.98-6.46 4.08 4.08 0 013.4 3.66l11.59 8.46 4.43-4.57 4.35 5.73-7.55 5.42c-.29.2-.63.31-.97.3zM136.06 105.57a9.16 9.16 0 009.13-9.18 9.16 9.16 0 00-9.13-9.18 9.16 9.16 0 00-9.13 9.18 9.16 9.16 0 009.13 9.18z" fill="#FFB8B8"/><path d="M140.37 150.55c-.74 0-1.48-.13-2.17-.4a4.86 4.86 0 01-2.46-2.12c-2.82-4.95-8.9-20.28-3.24-31.67 3.82-7.67 8.03-9.5 10.9-9.67 2.65-.17 3.16.42 4.04 2.82.5 1.32 1.45 3.22 2.55 5.42 3.97 7.9 9.96 19.82 4.94 25.75-5.4 6.4-10.57 9.87-14.56 9.87z" fill="#03C1CF"/><path d="M132.97 128.92c-.26 0-.52-.09-.74-.25l-7.11-5.46a1.23 1.23 0 01-.11-1.86l6.84-6.63a2.96 2.96 0 014.8 1 3 3 0 01.14 1.89L134.16 128a1.24 1.24 0 01-1.19.92z" fill="#03C1CF"/><path d="M139.5 143.97a4.09 4.09 0 01-4.04-4.68 4.12 4.12 0 013.36-3.5c.18-.02.36-.04.55-.04l12.08-15-4.04-4.38 5.96-4.02 4.9 7.92a1.7 1.7 0 01-.16 2l-14.66 16.5.1.39a4.13 4.13 0 01-4.05 4.8z" fill="#FFB8B8"/><path d="M147.55 120.1a1.22 1.22 0 01-1.04-.58l-4.98-8.13a3.01 3.01 0 01.19-3.42 2.97 2.97 0 013.66-.82l9.54 4.8a1.22 1.22 0 01.66.95 1.23 1.23 0 01-.42 1.08l-6.82 5.83c-.22.2-.5.3-.79.3z" fill="#03C1CF"/><path d="M128.62 105.98l6.41-3.97-.47-.77-6.03 3.74a1.8 1.8 0 00-2.08-1.09 1.79 1.79 0 00-1.36 1.92 1.8 1.8 0 001.7 1.63 1.78 1.78 0 001.83-1.46z" fill="#3F3D56"/><path d="M142.4 82.2s-4.29 4.23-13.58 5.57c-9.29 1.33-1.99 16.02-1.99 16.02s-2.66-5.34 2.66-10.01c5.3-4.68 12.9-5.57 12.9-11.57z" fill="#2F2E41"/><path d="M137.84 79.21s2.66 9.35 6.64 10.68c3.98 1.34 2 15.36-4.65 16.7 0 0 5.65-7.69 2.33-13.7-3.32-6-5.31-10.67-4.32-13.68z" fill="#2F2E41"/><path d="M144.03 86.12l-.12-.03-10.4-3.58a1.02 1.02 0 01-.67-.76 1.03 1.03 0 01.3-.97l8.34-7.7a1.02 1.02 0 011.7.57l2.07 11.28a1.05 1.05 0 01-.3.92 1.02 1.02 0 01-.92.27z" fill="#03C1CF"/><path d="M139.2 75.47l4.27.91-.23-1.26-2.97-.64-1.07.99zM138.31 76.29l5.36 1.14.23 1.27-6.66-1.43 1.07-.98z" fill="#E6E6E6"/><path d="M137.51 67.21l1.37 4.25a.57.57 0 00.68.39.56.56 0 00.4-.7l-1.37-4.23a.57.57 0 00-.69-.4.57.57 0 00-.39.69zM144.13 65.77l-1.3 4.45c-.2.69.88.99 1.08.3l1.3-4.45c.2-.7-.87-.99-1.08-.3zM148.94 69.84l-3.21 3.32c-.5.51.3 1.28.81.77l3.21-3.32c.5-.52-.3-1.29-.81-.77z" fill="#CCC"/><path d="M200.94 179.59a10.04 10.04 0 01-5.92 12.29c-.54.2-.3 1.09.24.88a10.98 10.98 0 006.55-13.41c-.17-.57-1.04-.33-.87.23z" fill="#fff"/><path opacity=".15" d="M232.53 26.17c5.7-8.96 3.53-20.59-2.53-24.48-6.05-3.9-17.46-1-23.15 7.97-5.27 8.3-3.53 19.04 1.28 23.5a.73.73 0 00-.26.1l-1.41.89a.75.75 0 000 1.27l3.03 1.85a.74.74 0 001-.22c.07-.1.12-.23.13-.35l.14-1.67-.01-.17c6.04 2.55 16.5-.38 21.78-8.69z" fill="#000"/><path d="M229.64 8.5c.92 2.98.69 6.2-.67 9.02-1.35 2.81-3.72 5-6.62 6.12-.67.26-.38 1.35.3 1.09a13.41 13.41 0 007.28-6.66c1.5-3.07 1.78-6.6.78-9.87-.2-.7-1.28-.4-1.07.3z" fill="#fff"/><path d="M75.74 21.88c-6.33-8.52-17.92-10.57-23.67-6.25-5.76 4.33-7.08 16.08-.75 24.6 5.86 7.89 16.47 10.04 22.32 7.09a.74.74 0 000 .28l.32 1.63a.75.75 0 00.85.6.74.74 0 00.34-.15l2.8-2.2a.75.75 0 00-.15-1.26l-1.5-.72a.74.74 0 00-.16-.05c4.5-4.8 5.47-15.67-.4-23.57z" fill="#03C1CF"/><path d="M61.9 18.66c3.09.5 5.88 2.17 7.79 4.67 1.9 2.5 2.78 5.65 2.45 8.79-.07.71 1.05.7 1.11 0a13.5 13.5 0 00-2.7-9.45 13.36 13.36 0 00-8.36-5.09c-.7-.12-1 .96-.3 1.08z" fill="#fff"/><path d="M50.33 139.1a17.48 17.48 0 0113.72 8.18c.42.67.96 1.4.67 2.22a1.46 1.46 0 01-1.5 1.02c-.85-.1-1.4-.94-1.5-1.74-.12-.9.51-1.62 1.3-1.96 1.92-.82 3.86.45 5.42 1.47 3.56 2.31 7.48 4.4 11.8 4.67 4 .24 8.27-1.33 10.5-4.82.38-.6-.58-1.17-.97-.56-2.2 3.45-6.65 4.7-10.53 4.16a20.38 20.38 0 01-6.59-2.25 40.43 40.43 0 01-3.1-1.82 19.84 19.84 0 00-3.05-1.76c-1.78-.73-4.13-.67-5.38 1.02-1.15 1.57-.26 4.2 1.68 4.64 1.83.42 3.44-1.31 3.07-3.13-.2-.93-.9-1.84-1.43-2.6a18.7 18.7 0 00-14.11-7.86c-.72-.03-.72 1.09 0 1.12z" fill="#03C1CF"/><path d="M217.4 138.14a17.44 17.44 0 01-16.59-.05c-.57-.32-1.06-.69-1.13-1.4a1.45 1.45 0 01.77-1.45c.8-.4 1.75.06 2.25.73.54.73.32 1.66-.17 2.34-1.3 1.76-3.73 1.6-5.65 1.56-4.15-.09-8.52.25-12.23 2.27-3.5 1.9-6.3 5.48-6.38 9.6-.02.72 1.1.72 1.11 0 .08-4.06 3.13-7.4 6.64-9.04 2.18-.95 4.5-1.5 6.88-1.63 1.16-.08 2.32-.1 3.48-.1 1.16.07 2.32.05 3.47-.07 2-.27 4.13-1.56 4.28-3.79.13-2.01-2.14-3.72-4.02-2.94a2.61 2.61 0 00-1.52 2.77c.06.37.19.73.4 1.05.5.77 1.39 1.16 2.19 1.54a18.54 18.54 0 0016.79-.42c.63-.35.07-1.31-.56-.97z" fill="#FF6584"/><path d="M167.02 65.4c5.02 1.74 8.53 6.86 8.83 12.13.15 2.67-.48 5.76-2.46 7.68a3.84 3.84 0 01-3.48 1.15c-1.1-.24-2.23-.99-2.42-2.18-.18-1.15.6-2.1 1.55-2.63a4.54 4.54 0 013.55-.34c1.55.48 2.86 1.52 4.1 2.53a30.33 30.33 0 003.89 2.75 23.66 23.66 0 0032.17-8.27c.4-.64.75-1.3 1.08-1.97.31-.65-.65-1.22-.97-.57a22.8 22.8 0 01-14.52 12.1 22.57 22.57 0 01-18.6-3.14c-2.6-1.75-5.09-4.75-8.47-4.77-2.48-.02-5.47 1.87-4.84 4.72.3 1.3 1.38 2.22 2.57 2.67a4.65 4.65 0 003.95-.32c2.63-1.5 3.78-4.8 4-7.66a15.13 15.13 0 00-7.72-14.13 13.5 13.5 0 00-1.91-.82c-.68-.24-.98.84-.3 1.08z" fill="#E6E6E6"/></g><defs><clipPath id="clip0"><path fill="#fff" d="M0 0h277v221H0z"/></clipPath></defs></svg>