<svg width="78" height="26" fill="none" xmlns="http://www.w3.org/2000/svg"><path d="M40.99 18.42H28.06a4.35 4.35 0 001.49 2.72c.81.67 1.85 1 3.1 1 1.51 0 2.8-.52 3.89-1.57l3.39 1.6a8.07 8.07 0 01-3.04 2.66 9.57 9.57 0 01-4.2.86c-2.52 0-4.57-.8-6.15-2.38a8.13 8.13 0 01-2.38-5.97c0-2.45.79-4.48 2.36-6.1a7.96 7.96 0 015.95-2.42c2.52 0 4.58.8 6.16 2.43 1.58 1.61 2.37 3.74 2.37 6.4l-.01.77zm-4.04-3.17c-.27-.9-.8-1.63-1.58-2.19a4.51 4.51 0 00-2.71-.84 4.8 4.8 0 00-2.95.95 5.26 5.26 0 00-1.48 2.08h8.72zM42.54 9.23h4.1l4.05 9.47 4.04-9.47h4.09l-6.83 16.04h-2.61L42.54 9.23zM68.72 8.82c1.52 0 2.94.37 4.27 1.13a8.28 8.28 0 014.25 7.28c0 1.52-.39 2.94-1.14 4.25a8.14 8.14 0 01-3.07 3.1 8.53 8.53 0 01-4.3 1.1c-2.3 0-4.26-.81-5.89-2.44a8.18 8.18 0 01-2.43-5.97c0-2.51.92-4.6 2.76-6.27a8.05 8.05 0 015.55-2.18zm.06 3.79c-1.25 0-2.29.43-3.12 1.3a4.63 4.63 0 00-1.24 3.34c0 1.4.4 2.53 1.22 3.4.83.86 1.87 1.29 3.13 1.29 1.26 0 2.3-.44 3.14-1.31.83-.88 1.25-2 1.25-3.38s-.41-2.5-1.24-3.35a4.13 4.13 0 00-3.14-1.3z" fill="#fff"/><path d="M6.44 20.4V4.74H1.69V20.4h4.75z" fill="url(#paint0_linear)"/><path d="M7.34.1H1.7v4.63h6.37c2.98 0 5.14.66 6.49 1.98 1.49 1.47 2.24 3.54 2.24 6.21 0 1.73-.32 3.02-.94 4.2a5.7 5.7 0 01-2.43 2.53c-.98.5-2.57.76-4.76.76H1.7v4.86h5.74c3.26 0 5.55-.2 6.88-.61a9.36 9.36 0 003.67-2.23 10.96 10.96 0 002.67-4.03c.65-1.64.98-3.42.98-5.36 0-2.73-.58-5.1-1.73-7.15a10.57 10.57 0 00-4.4-4.41C13.72.56 11 .1 7.34.1zM1.7.1v4.63C.88 4.73.22 4.07.22 3.27v-1.7C.23.77.9.1 1.7.1z" fill="#fff"/><defs><linearGradient id="paint0_linear" x1="4.06" y1="4.73" x2="4.06" y2="20.41" gradientUnits="userSpaceOnUse"><stop stop-color="#fff" stop-opacity="0"/><stop offset=".92" stop-color="#fff"/></linearGradient></defs></svg>