<svg width="302" height="215" fill="none" xmlns="http://www.w3.org/2000/svg"><g clip-path="url(#clip0)"><path d="M66.92 21.54H47.66c-1.85 0-3.63.74-4.93 2.07a7.1 7.1 0 00-2.05 4.98v21.1l-.74-.07a24.49 24.49 0 01-12.52-5.09 24.86 24.86 0 01-7.99-11 25.12 25.12 0 015.16-25.7 24.38 24.38 0 0125.1-6.75 24.6 24.6 0 0111.34 7.39 24.99 24.99 0 015.9 13.07z" fill="#F2F2F2"/><path d="M294.28 20.8H47.66c-2.04 0-4 .82-5.45 2.28a7.85 7.85 0 00-2.27 5.51v131.45c0 2.07.82 4.05 2.27 5.51a7.69 7.69 0 005.45 2.29h246.62c2.05 0 4.01-.83 5.46-2.29a7.85 7.85 0 002.26-5.5V28.58c0-2.07-.82-4.05-2.26-5.5a7.69 7.69 0 00-5.46-2.3zm6.99 139.24a7.1 7.1 0 01-2.05 4.99 6.96 6.96 0 01-4.94 2.07H47.66a6.95 6.95 0 01-4.93-2.07 7.1 7.1 0 01-2.05-4.99V28.6a7.1 7.1 0 012.05-4.98 6.95 6.95 0 014.93-2.07h246.62c1.85 0 3.63.74 4.94 2.07a7.1 7.1 0 012.04 4.98v131.45z" fill="#3F3D56"/><path d="M282.15 42.1H59.8c-.1 0-.2-.04-.26-.11a.37.37 0 010-.53c.07-.07.16-.1.26-.1h222.36a.37.37 0 01.37.37c0 .1-.04.19-.1.26a.37.37 0 01-.27.1z" fill="#3F3D56"/><path d="M122.64 151.87a.37.37 0 01-.37-.37V29.33c0-.1.04-.19.11-.26a.37.37 0 01.52 0c.07.07.1.17.1.26V151.5c0 .1-.03.2-.1.26a.37.37 0 01-.26.11zM178.14 151.87a.37.37 0 01-.37-.37V29.33c0-.1.04-.19.1-.26a.37.37 0 01.53 0c.07.07.1.17.1.26V151.5c0 .1-.03.2-.1.26a.37.37 0 01-.26.11zM233.64 151.87a.37.37 0 01-.37-.37V29.33c0-.1.04-.19.1-.26a.37.37 0 01.63.26V151.5c0 .1-.03.2-.1.26a.37.37 0 01-.26.11z" fill="#3F3D56"/><path d="M86.96 80.42H73.53c-.44 0-.86-.17-1.17-.49a1.68 1.68 0 01-.49-1.18v-16c0-.45.18-.88.49-1.19.3-.31.73-.49 1.17-.49h13.43a1.68 1.68 0 011.65 1.67v16.01a1.65 1.65 0 01-1.65 1.67zM106.07 126.1H92.64a1.68 1.68 0 01-1.65-1.67v-16.01c0-.45.17-.87.48-1.19.31-.31.73-.49 1.17-.49h13.43a1.68 1.68 0 011.65 1.67v16.02a1.68 1.68 0 01-1.65 1.67zM149.44 90.08H136a1.68 1.68 0 01-1.65-1.67V72.4a1.65 1.65 0 011.65-1.67h13.43c.44 0 .86.17 1.17.49.3.3.48.73.48 1.18v16a1.65 1.65 0 01-1.65 1.67zM205.67 72.63h-13.43a1.68 1.68 0 01-1.65-1.67V54.94a1.65 1.65 0 011.65-1.67h13.43a1.68 1.68 0 011.65 1.67v16.02a1.65 1.65 0 01-1.65 1.67zM257.5 72.63h-13.43a1.68 1.68 0 01-1.65-1.67V54.94a1.68 1.68 0 011.65-1.67h13.43a1.68 1.68 0 011.65 1.67v16.02a1.68 1.68 0 01-1.65 1.67z" fill="#03C1CF"/><path d="M281.39 77.08h-13.43c-.44 0-.86-.17-1.17-.49a1.68 1.68 0 01-.49-1.18V59.4c0-.44.18-.87.49-1.18.3-.31.73-.5 1.17-.5h13.43a1.68 1.68 0 011.65 1.67v16.02a1.65 1.65 0 01-1.65 1.67zM270.73 105.67H257.3c-.44 0-.86-.17-1.17-.49a1.68 1.68 0 01-.49-1.18V88c0-.45.18-.88.49-1.19.3-.31.73-.49 1.17-.49h13.43a1.68 1.68 0 011.65 1.67V104a1.65 1.65 0 01-1.65 1.67z" fill="#E6E6E6"/><path d="M225.15 99.73h-13.43c-.44 0-.86-.17-1.17-.49a1.68 1.68 0 01-.48-1.18v-16a1.65 1.65 0 011.65-1.67h13.43c.44-.01.86.17 1.17.48.31.31.49.74.49 1.18v16.01c0 .44-.18.87-.49 1.18-.3.32-.73.5-1.17.5z" fill="#FF6584"/><path d="M199.06 105.67h-13.43c-.44 0-.86-.17-1.17-.49a1.68 1.68 0 01-.49-1.18V88c0-.45.18-.88.49-1.19.3-.31.73-.49 1.17-.49h13.43A1.68 1.68 0 01200.7 88V104a1.68 1.68 0 01-1.65 1.67zM142.82 130.92H129.4c-.43 0-.85-.17-1.16-.49a1.68 1.68 0 01-.49-1.18v-16a1.65 1.65 0 011.65-1.67h13.43c.44 0 .86.17 1.17.48.31.31.49.74.49 1.18v16.01c0 .45-.18.87-.49 1.18-.3.32-.73.5-1.17.5z" fill="#E6E6E6"/><path d="M74.83 109.76H61.4a1.68 1.68 0 01-1.65-1.67V92.08a1.65 1.65 0 011.65-1.67h13.43c.44 0 .86.17 1.17.49.3.3.48.73.48 1.18v16a1.65 1.65 0 01-1.65 1.67z" fill="#FF6584"/><path d="M112.69 80.42H99.25c-.44 0-.86-.17-1.17-.49a1.68 1.68 0 01-.49-1.18v-16c0-.45.18-.88.49-1.19.3-.31.73-.49 1.17-.49h13.42a1.68 1.68 0 011.65 1.67v16.01a1.65 1.65 0 01-1.65 1.67z" fill="#E6E6E6"/><path d="M101.69 36.02H80.74a1.5 1.5 0 010-2.97h20.95c.39 0 .76.15 1.04.43a1.5 1.5 0 01-1.04 2.54zM160.86 36.02h-20.95a1.5 1.5 0 010-2.97h20.95c.4 0 .77.15 1.04.43a1.5 1.5 0 010 2.1c-.27.28-.65.44-1.04.44zM216.36 36.02h-20.95a1.5 1.5 0 01-1.04-2.54c.28-.28.65-.43 1.04-.43h20.95c.4 0 .77.15 1.04.43a1.5 1.5 0 01-1.04 2.54zM268.19 36.02h-20.95a1.5 1.5 0 010-2.97h20.95c.39 0 .76.15 1.04.43a1.5 1.5 0 010 2.1c-.28.28-.65.44-1.04.44z" fill="#CCC"/><path d="M54.77 144.78a3.67 3.67 0 01-2.7-1.61 3.76 3.76 0 01-.5-3.12l-9.42-8.86 4.98-1.28 9.26 7.6a3.73 3.73 0 012.39 4.36 3.7 3.7 0 01-4.01 2.9zM67.78 210.26h4.5l2.15-17.56h-6.65v17.56z" fill="#FFB8B8"/><path d="M80.97 214.49H66.81v-5.53h8.7c1.44 0 2.83.58 3.86 1.62a5.56 5.56 0 011.6 3.91z" fill="#2F2E41"/><path d="M36.88 206.98l4.36 1.17 6.54-16.41-6.43-1.73-4.47 16.97z" fill="#FFB8B8"/><path d="M48.56 214.5l-13.69-3.69 1.4-5.34 8.4 2.26c1.4.38 2.6 1.3 3.33 2.57.73 1.27.93 2.77.56 4.2zM73.5 206.94h-6.88a1.73 1.73 0 01-1.74-1.6l-4.17-43.79a1.4 1.4 0 00-1.24-1.25 1.37 1.37 0 00-1.45.99L45.9 202.2a1.73 1.73 0 01-2.1 1.2l-6.4-1.61a1.73 1.73 0 01-1.07-.81 1.77 1.77 0 01-.2-1.34c.11-.41 10.45-41.23 10.54-41.65 2.34-17.44 5.15-22.11 6.65-24.62l.34-.58c.13-.23.93-2.47 1.43-3.93a1.78 1.78 0 01.9-1.1c6.32-3.27 13.72-1 15.84-.23.35.12.65.36.86.67 6.35 9.68 3.23 65.9 2.55 77.08a1.77 1.77 0 01-1.75 1.65z" fill="#2F2E41"/><path d="M55.75 96.02a9.07 9.07 0 009.03-9.12 9.07 9.07 0 00-9.03-9.12 9.07 9.07 0 00-9.03 9.12 9.07 9.07 0 009.03 9.12z" fill="#FFB8B8"/><path d="M54.8 130.65l-.07-.07c-.12-.12-12.15-12.02-10.6-23.03.67-4.7 4.44-7.72 10.91-8.7 2.38-.36 4.8.17 6.83 1.47 2.02 1.3 3.51 3.3 4.2 5.63l6.4 22.09-17.68 2.6z" fill="#CCC"/><path d="M48.64 139.11l-8.57-8.6a4.9 4.9 0 01-1.28-4.6l4.15-17.05a3.87 3.87 0 011.83-2.44 3.77 3.77 0 015.22 1.55c.46.89.57 1.92.3 2.89l-4.37 15 7.06 7.66-4.34 5.6z" fill="#CCC"/><path d="M94.6 109.75a3.72 3.72 0 01-3.98 2.11c-.54-.1-1.04-.3-1.48-.61l-11.44 5.99.5-5.1 10.14-6.33a3.71 3.71 0 016.47 1.28c.26.88.18 1.83-.2 2.66z" fill="#FFB8B8"/><path d="M87.89 113.54l-11.16 4.87a4.66 4.66 0 01-4.58-.5l-14.19-10.27a3.83 3.83 0 01-1.44-4.18 3.8 3.8 0 016.01-1.97l12.17 9.68 9.66-3.78 3.53 6.15z" fill="#CCC"/><path d="M57.25 89.82c1.11-1.4 3.2-1.48 4.72-2.41 2-1.22 2.83-3.94 2.19-6.22a7.76 7.76 0 00-4.74-4.88 12.94 12.94 0 00-6.91-.45c-3.43.61-6.8 2.23-8.9 5.04-2.09 2.81-2.62 6.93-.73 9.88.87 1.36 2.22 2.48 2.57 4.05.45 2.08-.98 4.07-2.53 5.52-1.75 1.64-3.77 3.02-5.3 4.87-1.54 1.85-2.57 4.38-1.87 6.7.6 1.93 2.3 3.36 4.18 4.08 1.88.7 3.92.81 5.92.85 1.95.04 4.02 0 5.66-1.07 1.76-1.13 2.7-3.29 2.76-5.4.07-2.1-.62-4.16-1.56-6.04-.55-1.13-1.2-2.21-1.57-3.41a4.82 4.82 0 01.16-3.66 4.52 4.52 0 013.37-2.15 2.7 2.7 0 002.3-2.1c.08-.37.1-.74.03-1.1-.15-.83-.13-1.62.25-2.1z" fill="#2F2E41"/><path d="M177.6 210.65h-4.5l-2.14-17.56h6.65v17.56z" fill="#ECB5B5"/><path d="M169.88 209.35h8.7v5.53H164.4a5.57 5.57 0 013.38-5.1 5.42 5.42 0 012.1-.43z" fill="#2F2E41"/><path d="M210.3 205.5l-4.1 1.89-9.17-15.07 6.05-2.8 7.22 15.97z" fill="#ECB5B5"/><path d="M202.74 207.56l7.9-3.65 2.28 5.03-12.88 5.94a5.59 5.59 0 012.7-7.32z" fill="#2F2E41"/><path d="M197.18 151.45a3.72 3.72 0 001.2-4.39c-.2-.5-.51-.96-.9-1.33l5.29-12.14-6.73 1.15-4 11.35a3.78 3.78 0 002.6 6.12c.92.06 1.82-.2 2.54-.76z" fill="#ECB5B5"/><path d="M177.32 206.02h-4.3a1.68 1.68 0 01-1.65-1.55l-2.35-63.33a1.67 1.67 0 011.8-1.78l24.9 2.67a1.68 1.68 0 011.5 1.63l.52 27.94c0 .15.03.3.08.44l10.22 26.75a1.69 1.69 0 01-.97 2.17l-4.37 1.63a1.64 1.64 0 01-2.04-.8l-12.54-24.65a1.7 1.7 0 01-.15-.43l-2.15-10.43a1.28 1.28 0 00-2.54.12l-4.32 38.14a1.67 1.67 0 01-1.64 1.48z" fill="#2F2E41"/><path d="M179.46 91.62a9.07 9.07 0 009.03-9.12 9.07 9.07 0 00-9.03-9.12 9.07 9.07 0 00-9.02 9.12 9.07 9.07 0 009.02 9.12z" fill="#ECB5B5"/><path d="M185.65 146.93a31.99 31.99 0 01-17.22-5.27l-.1-.06.02-.11 3.45-40.63a5.75 5.75 0 011.71-3.63 5.64 5.64 0 013.66-1.59c4.47-.2 10.48.05 13.7 2.48a15.92 15.92 0 016.43 15.11c-1.6 12.34.21 28.98.43 30.83l.01.14-.12.05a28.17 28.17 0 01-11.97 2.68z" fill="#03C1CF"/><path d="M197.69 144.13a1.81 1.81 0 01-1.36-.6l-1.97-2.18a1.87 1.87 0 01-.4-1.78l4.5-15.4-6.86-14.53a3.32 3.32 0 01.77-3.84 3.21 3.21 0 015 .89l9.3 15.23a4.48 4.48 0 01.27 4.16l-7.58 16.96a1.86 1.86 0 01-1.67 1.1z" fill="#03C1CF"/><path d="M134.06 114.72a3.68 3.68 0 005.5-1.33l13.03 1.71-2.99-6.2-11.9-.67a3.68 3.68 0 00-4.68 1.62 3.79 3.79 0 001.04 4.87z" fill="#ECB5B5"/><path d="M162.77 118.1a4.8 4.8 0 01-.68-.04l-20.5-2.87a2.02 2.02 0 01-1.67-1.47 2.08 2.08 0 01.2-1.64l1.7-2.84a2.06 2.06 0 011.75-1l17.87.02 13.34-12.07a3.6 3.6 0 015.96 3.4c-.14.73-.49 1.4-1.01 1.91l-13.31 14.96a4.9 4.9 0 01-3.65 1.65z" fill="#03C1CF"/><path d="M180.49 90.61c.82-1.93 1.52-4.5-.06-5.86-.92-.79-2.24-.8-3.44-.89-3.39-.28-6.88-1.85-8.53-4.85-1.66-3-.73-7.46 2.39-8.81 2.1-.91 4.52-.3 6.72.34l6.62 1.9c1.97.56 4.03 1.18 5.45 2.67 2.26 2.38 2.09 6.4.3 9.14-1.8 2.75-4.5 5.62-7.6 6.66l-1.85-.3z" fill="#2F2E41"/><path d="M271.8 215H.43a.44.44 0 01-.4-.61.45.45 0 01.23-.24.44.44 0 01.17-.03h271.35a.44.44 0 01.44.44.44.44 0 01-.44.44z" fill="#3F3D56"/></g><defs><clipPath id="clip0"><path fill="#fff" d="M0 0h302v215H0z"/></clipPath></defs></svg>