<svg width="339" height="238" fill="none" xmlns="http://www.w3.org/2000/svg"><g clip-path="url(#clip0)"><path d="M50.26 168.71a3.4 3.4 0 00-2.5-1.48 3.55 3.55 0 00-2.76.9l-10.9-5.46.67 6.15 10.25 4.25a3.52 3.52 0 004.61.08 3.3 3.3 0 00.63-4.43z" fill="#ECB5B5"/><path d="M40.57 171.19a1.6 1.6 0 01-1.26.01l-10.35-4.36a15.71 15.71 0 01-8.06-7.56l-5.44-11.16a4.78 4.78 0 01-1.01-3.57 4.74 4.74 0 011.88-3.22 5.01 5.01 0 013.68-.97 5.06 5.06 0 013.31 1.83l9.57 17.24 8.83 6.48c.26.19.44.44.54.74.1.29.1.6 0 .9l-.86 2.72a1.5 1.5 0 01-.83.92z" fill="#CCC"/><path d="M15.22 135a8.31 8.31 0 008.43-8.19 8.31 8.31 0 00-8.43-8.19 8.31 8.31 0 00-8.43 8.2 8.31 8.31 0 008.43 8.18zM18.64 234.2h4.2l2-15.76h-6.2v15.77z" fill="#ECB5B5"/><path d="M30.96 238H17.73v-4.96h8.12c1.35 0 2.65.52 3.61 1.45.96.93 1.5 2.2 1.5 3.51z" fill="#2F2E41"/><path d="M4.9 234.2h4.21l2-15.76h-6.2v15.77z" fill="#ECB5B5"/><path d="M17.23 238H4v-4.96h8.12c1.35 0 2.65.52 3.61 1.45.96.93 1.5 2.2 1.5 3.51zM3.44 229.7a1.49 1.49 0 01-.37-1.2l7.36-53.65 18.31 3.02 1.95-1.14-5.05 50.91c-.04.35-.2.66-.46.9-.26.25-.59.4-.94.42l-5.55.45a1.6 1.6 0 01-1.2-.42 1.5 1.5 0 01-.47-1.16l1.44-24.25a.16.16 0 00-.04-.11.17.17 0 00-.1-.06c-.05 0-.1 0-.13.02a.17.17 0 00-.07.1l-7.1 25.57c-.09.31-.28.6-.55.8-.27.2-.6.3-.94.3H4.6a1.59 1.59 0 01-1.16-.5z" fill="#2F2E41"/><path d="M16.11 178.6a1.23 1.23 0 00-1.55-.06l-3.66 2.77a1.57 1.57 0 01-2.06-.15c-.17-.17-.3-.39-.37-.62-1.8-6.1-5.86-21.47-4.86-32.3a11.55 11.55 0 0112.15-10.39c4.2.27 6.95 2.62 8.2 6.98 3.06 10.7 6.43 30.35 7.07 34.18.05.3.01.6-.12.87-.13.28-.34.5-.6.66a11.56 11.56 0 01-5.74 1.56c-2.44 0-5.37-.82-8.46-3.5z" fill="#CCC"/><path d="M17.5 182.41a3.26 3.26 0 00-1.02-2.66 3.47 3.47 0 00-2.76-.95l-5.1-10.83-3.38 5.25 5.37 9.48c.13.82.57 1.55 1.23 2.08a3.54 3.54 0 004.6-.2c.62-.57.99-1.34 1.05-2.17z" fill="#ECB5B5"/><path d="M8.3 178.56a1.57 1.57 0 01-1-.75l-5.38-9.63A15.06 15.06 0 01.4 157.4l2.81-12.04a4.71 4.71 0 011.47-3.42 4.99 4.99 0 013.53-1.4 5.1 5.1 0 013.51 1.44 4.83 4.83 0 011.44 3.42l-3.42 19.3 2.83 10.4a1.5 1.5 0 01-.61 1.62l-2.41 1.61a1.58 1.58 0 01-1.24.23z" fill="#CCC"/><path opacity=".2" d="M12.47 153.54l-3.09 12.67 4.46 10.66-3.09-10.33 1.72-13z" fill="#000"/><path d="M10.4 133.54c-.74.02-1.49-.11-2.18-.38-.31-.12-.63-.21-.94-.33a7.34 7.34 0 01-4.55-6.63c-.06-2.81 1.44-5.54 3.67-7.34a14.45 14.45 0 018.01-2.94c3.12-.23 6.62.53 8.36 3.05.47.67.8 1.49.52 2.3-.09.24-.23.46-.43.63-.78.67-1.55.17-2.34.12-1.1-.06-2.07.8-2.42 1.8-.35 1-.2 2.1.08 3.13.22.62.36 1.26.41 1.9a1.86 1.86 0 01-.82 1.69c-.68.4-1.57.17-2.25-.23-.68-.4-1.27-.96-2-1.25-.74-.3-1.73-.23-2.16.42-.14.24-.23.5-.27.77-.39 1.7-.3 1.6-.68 3.3z" fill="#2F2E41"/><path d="M259.96 76.82H51.6c-.79 0-1.55.31-2.11.86a2.87 2.87 0 00-.88 2.05v137.1c0 .77.32 1.51.88 2.06.56.54 1.32.85 2.11.85h208.36a3.07 3.07 0 002.34-1.1 2.76 2.76 0 00.66-1.8v-85.35h-.85v85.34c0 .4-.13.8-.36 1.14a2.18 2.18 0 01-1.79.94H51.6c-.56 0-1.1-.22-1.5-.61-.4-.39-.63-.92-.63-1.47V79.73c0-.55.22-1.08.62-1.47.4-.39.95-.6 1.51-.6h208.36c.57 0 1.12.21 1.52.6.4.4.62.92.63 1.47v18.42h.85V79.73c0-.77-.32-1.51-.88-2.06a3.04 3.04 0 00-2.12-.85z" fill="#3F3D56"/><path d="M262.53 88.47H49.03v.84h213.5v-.84z" fill="#3F3D56"/><path d="M56.31 85.55a2.53 2.53 0 002.57-2.5c0-1.37-1.15-2.49-2.57-2.49a2.53 2.53 0 00-2.57 2.5c0 1.37 1.15 2.49 2.57 2.49zM63.69 85.55a2.53 2.53 0 002.57-2.5c0-1.37-1.15-2.49-2.57-2.49a2.53 2.53 0 00-2.57 2.5c0 1.37 1.15 2.49 2.57 2.49zM71.07 85.55a2.53 2.53 0 002.57-2.5c0-1.37-1.15-2.49-2.57-2.49a2.53 2.53 0 00-2.57 2.5c0 1.37 1.15 2.49 2.57 2.49z" fill="#CCC"/><path d="M122.63 202.93a5.44 5.44 0 01-4.44-2.36 5.06 5.06 0 01-.39-4.9l6.12-13.25a44.1 44.1 0 01-11.3-14.91c-2.64-5.7-4-11.87-3.99-18.12 0-24.4 20.44-44.24 45.56-44.24s45.56 19.85 45.56 44.24c0 24.4-20.44 44.24-45.56 44.24-4.4 0-8.76-.63-12.97-1.85l-15.61 10.26a5.4 5.4 0 01-2.98.9zm31.56-91.6a39.99 39.99 0 00-22.7 7.01 38.18 38.18 0 00-14.31 18.48 37 37 0 00-.65 23.12 38 38 0 0013.25 19.2l1.93 1.5-6.58 14.26 15.1-9.93 1.49.49a40.3 40.3 0 0032.71-3.48 38.74 38.74 0 0012.22-11.26 37.43 37.43 0 006.23-15.2c.92-5.45.6-11.02-.92-16.34a37.7 37.7 0 00-7.9-14.45 39.09 39.09 0 00-13.42-9.9 40.16 40.16 0 00-16.45-3.5z" fill="#3F3D56"/><path d="M154.19 153.5a6.27 6.27 0 006.36-6.16c0-3.41-2.85-6.18-6.36-6.18a6.27 6.27 0 00-6.36 6.18 6.27 6.27 0 006.36 6.17zM136.18 153.5a6.27 6.27 0 006.35-6.16c0-3.41-2.84-6.18-6.35-6.18a6.27 6.27 0 00-6.36 6.18 6.27 6.27 0 006.36 6.17zM172.2 153.5a6.27 6.27 0 006.36-6.16c0-3.41-2.85-6.18-6.36-6.18a6.27 6.27 0 00-6.35 6.18 6.27 6.27 0 006.35 6.17z" fill="#3F3D56"/><path d="M314.05 122.9h-60.41c-.73 0-1.43-.28-1.94-.78a2.63 2.63 0 010-3.77c.51-.5 1.21-.78 1.94-.78h60.41c.73 0 1.43.28 1.94.78a2.63 2.63 0 010 3.77c-.51.5-1.2.78-1.94.78zM274.58 111.57h-20.94c-.73 0-1.43-.28-1.94-.78a2.63 2.63 0 010-3.77c.51-.5 1.21-.78 1.94-.78h20.94c.73 0 1.43.28 1.94.78a2.63 2.63 0 010 3.77c-.51.5-1.21.78-1.94.78z" fill="#CCC"/><path d="M226.28 126.15c6.44 0 11.67-5.07 11.67-11.33s-5.23-11.33-11.67-11.33c-6.45 0-11.68 5.07-11.68 11.33s5.23 11.33 11.68 11.33z" fill="#03C1CF"/><path d="M320.1 97.49H211.3c-1.55 0-3.03.6-4.13 1.66a5.6 5.6 0 00-1.71 4v23.33c0 1.5.62 2.95 1.71 4a5.93 5.93 0 004.13 1.67h108.8c1.56 0 3.04-.6 4.13-1.66a5.6 5.6 0 001.71-4v-23.34a5.6 5.6 0 00-1.7-4 5.93 5.93 0 00-4.13-1.66zm5.16 29c0 1.32-.55 2.6-1.51 3.53a5.24 5.24 0 01-3.64 1.47H211.29a5.24 5.24 0 01-3.63-1.47 4.93 4.93 0 01-1.51-3.54v-23.33c0-1.32.54-2.6 1.5-3.53a5.24 5.24 0 013.64-1.47h108.82c1.36 0 2.67.53 3.64 1.47.96.94 1.5 2.2 1.5 3.53v23.33z" fill="#3F3D56"/><path d="M325.26 106.82c4.36 0 7.9-3.43 7.9-7.67a7.78 7.78 0 00-7.9-7.66 7.78 7.78 0 00-7.9 7.66 7.78 7.78 0 007.9 7.67z" fill="#03C1CF"/><path d="M325.01 103.46a.32.32 0 01-.1-.23v-8.49c0-.08.04-.17.1-.23a.35.35 0 01.5 0c.06.06.1.15.1.23v8.49c0 .06-.03.13-.07.18-.03.06-.09.1-.15.13a.35.35 0 01-.37-.07z" fill="#fff"/><path d="M320.65 99.22a.33.33 0 01-.07-.36.34.34 0 01.3-.2h8.75c.09 0 .18.03.24.1a.33.33 0 010 .46.35.35 0 01-.24.1h-8.74a.35.35 0 01-.24-.1z" fill="#fff"/><path d="M334.7 201.05h-16.47c0 .46-16.99.83-16.99.83a4.06 4.06 0 00-1.72 3.33v.67c0 1.1.46 2.17 1.26 2.95.8.78 1.9 1.22 3.04 1.22h30.89c1.14 0 2.23-.44 3.03-1.22a4.1 4.1 0 001.26-2.95v-.66c0-1.1-.45-2.17-1.26-2.95a4.36 4.36 0 00-3.03-1.22z" fill="#3F3D56"/><path d="M321.66 209.88h-4.46v28h4.46v-28z" fill="#3F3D56"/><path d="M334.36 237.73c0 .47-6.76.18-15.1.18s-15.1.29-15.1-.18 6.76-4.18 15.1-4.18 15.1 3.71 15.1 4.18z" fill="#3F3D56"/><path d="M320.86 163.53c5.31 0 9.62-4.18 9.62-9.33 0-5.16-4.3-9.34-9.62-9.34-5.3 0-9.6 4.18-9.6 9.34 0 5.15 4.3 9.33 9.6 9.33z" fill="#2F2E41"/><path d="M296.95 234.05h-4.21l-2-15.76h6.2v15.76z" fill="#FFB8B8"/><path d="M289.73 232.88h8.12v4.96h-13.23c0-1.31.54-2.58 1.5-3.5a5.19 5.19 0 013.61-1.46z" fill="#2F2E41"/><path d="M290.38 231.77l-4.02-1.23 2.95-15.62 5.93 1.81-4.86 15.04z" fill="#FFB8B8"/><path d="M283.85 228.56l7.75 2.36-1.53 4.73-12.62-3.84a5 5 0 012.5-2.92c1.2-.6 2.61-.73 3.9-.33zM323.44 198.32c-.1-.8-.27-1.58-.52-2.34l-.79-.96-2.05-2.5H320l-1.75.12h-.01c-.6.05-1.34.1-2.17.19l-.7.06v3.48h4.3c.2 0 .41.08.57.21.15.13.25.32.28.52v.1c0 .23-.08.44-.24.6a.87.87 0 01-.61.24h-24.92c-.32.2-.62.43-.91.67a4.95 4.95 0 00-1.8 2.61c-1.46 6.22-4.12 17.8-4.9 21.2a1.47 1.47 0 00.47 1.43c.14.14.31.24.5.3l3.1 1.13c.12.05.26.08.4.1h.14c.3 0 .61-.1.87-.27s.46-.41.57-.7l2.44-6.22 3.77-9.6 1.49-3.8c1.73.4 16.21 3.5 21.06-1.5.48-.5.86-1.08 1.12-1.71.4-1.07.53-2.23.37-3.36z" fill="#2F2E41"/><path d="M327.64 199.22c-.07-.3-.16-.6-.26-.9l-2.83-3.46h-.1a121.49 121.49 0 00-8.4.8l-.67.1v.61h4.29c.2 0 .41.08.57.21.15.13.25.32.28.52v.1c0 .23-.08.44-.24.6a.87.87 0 01-.61.24H304.5c-.66.2-1.3.43-1.9.67-3.21 1.23-5.61 2.84-6.1 4.95l-.54 2.3-2.37 10.26-.48 2.07-1.5 6.57-.03.1v.01a1.47 1.47 0 00.99 1.62l3.1 1.13a1.55 1.55 0 001.98-.87l6.67-16.99 1.03-2.64c1.73.4 16.21 3.5 21.06-1.5.96-1.01 1.51-2.32 1.54-3.7a9.66 9.66 0 00-.31-2.8z" fill="#2F2E41"/><path d="M327.26 169.82a8.43 8.43 0 00-3.47-2.26 8.63 8.63 0 00-3.9-.39c-1.15.15-2.29.36-3.4.65a8.65 8.65 0 00-3.84 2.09 8.1 8.1 0 00-2.55 6.07 30.8 30.8 0 010 2.06h3.4a1.94 1.94 0 011.47.7c.26.32.4.72.4 1.13v15.5l.7.2.2.06.24.08c.7.2 1.38.43 2.04.66h1.12c.2 0 .41.08.57.21.15.13.25.32.28.52a44.46 44.46 0 012.92 1.22c.93.41 1.76.8 2.45 1.15a1.54 1.54 0 002.16-.85c.08-.23.1-.48.06-.72a41.49 41.49 0 01-.3-7.9c.09-2.22.3-4.5.56-6.69a129.15 129.15 0 01.98-6.55 7.96 7.96 0 00-2.1-6.94z" fill="#03C1CF"/><path d="M313.19 170.1a4.11 4.11 0 00-3.28.06 3.89 3.89 0 00-1.91 1.93l-2.36 5.28-.3.67h8.15c.15 0 .3.02.44.05l.27-.62 1.05-2.34c.41-.93.43-1.98.04-2.93a3.9 3.9 0 00-2.1-2.1z" fill="#03C1CF"/><path d="M320.51 164.57a8.31 8.31 0 008.43-8.19 8.31 8.31 0 00-8.43-8.19 8.31 8.31 0 00-8.43 8.19 8.31 8.31 0 008.43 8.19z" fill="#FFB8B8"/><path d="M311.93 152.36c4 2.36 8.5 3.8 13.16 4.2l-1.4-1.6c1.02.36 2.08.56 3.16.6 1.07-.02 2.2-.42 2.8-1.28a3.05 3.05 0 00.22-2.87 5.93 5.93 0 00-1.9-2.32 11.55 11.55 0 00-10.6-1.84 6.83 6.83 0 00-3.16 1.97c-.8.96-2.34 1.81-1.93 2.98l-.35.16z" fill="#2F2E41"/><path d="M321.93 145.75a26 26 0 00-9.43-5.92c-2.27-.82-4.76-1.32-7.14-.86-2.38.47-4.63 2.07-5.3 4.34-.54 1.85.02 3.85.86 5.6.85 1.75 1.97 3.37 2.65 5.18a11.5 11.5 0 01-1.7 11.15 12.11 12.11 0 01-4.66 3.65 12.49 12.49 0 01-5.89 1.05c2.35.3 4.5 1.38 6.79 1.94 2.29.57 4.99.53 6.69-1.06 1.8-1.68 1.83-4.42 1.75-6.84l-.4-10.82c-.06-1.84-.11-3.74.57-5.45.68-1.72 2.3-3.22 4.2-3.2 1.44 0 2.7.85 3.86 1.69 1.15.83 2.37 1.72 3.8 1.84 1.43.12 3.06-.9 2.95-2.3l.4.01z" fill="#2F2E41"/><path d="M328.85 179.83l-4.82.13-.35 3.28-.08.76-7.54 3.29-.68.3v5.84l.69-.19 2.17-.6 9.56-2.64.11-.03a3.74 3.74 0 001.94-1.3c.48-.61.75-1.37.76-2.15l.02-3.88.02-2.85-1.8.04z" fill="#FFB8B8"/><path d="M330.41 173.34a3.8 3.8 0 00-1.33-2.64 4.02 4.02 0 00-5.57.34 3.77 3.77 0 00-.98 2.77l.52 8.32a1.46 1.46 0 00.63 1.11c.3.21.65.31 1.01.3l3.68-.23 1.12-.06a1.54 1.54 0 001.14-.6c.22-.3.33-.64.3-1l-.52-8.31z" fill="#03C1CF"/><path d="M316.5 195.7h-.43v-.04l-.7.1v.61h3.18a52.6 52.6 0 00-2.04-.66zm0 0h-.43v-.04l-.7.1v.61h3.18a52.6 52.6 0 00-2.04-.66zm3.17 0h-3.6v-15.83c0-.54-.19-1.07-.52-1.5a2.58 2.58 0 00-2.06-1h-30.55c-.68 0-1.34.27-1.82.74-.48.46-.75 1.1-.75 1.76v16.34c0 .66.27 1.3.75 1.76.48.47 1.14.74 1.82.74h36.73c.38 0 .75-.14 1.03-.39a1.49 1.49 0 00.51-1.11c0-.4-.16-.78-.45-1.06a1.57 1.57 0 00-1.09-.44zm.86 1.5c0 .23-.1.44-.25.6a.87.87 0 01-.61.24h-36.73c-.5 0-.98-.2-1.33-.54a1.8 1.8 0 01-.56-1.3v-16.33c0-.48.2-.95.56-1.3.35-.34.83-.53 1.33-.53h30.55a1.94 1.94 0 011.48.7c.26.32.4.72.4 1.13v16.5h4.3c.2 0 .41.08.57.21.15.13.25.32.28.52v.1zm-4.02-1.5h-.44v-.04l-.7.1v.61h3.18a52.6 52.6 0 00-2.04-.66z" fill="#3F3D56"/><path d="M298.21 190.04c1.14 0 2.06-.9 2.06-2s-.92-2-2.06-2c-1.13 0-2.06.9-2.06 2s.93 2 2.06 2z" fill="#03C1CF"/><path d="M114.26 23.79c-.01.15 0 .3.01.45l-10.78 8.79-3.21-1.13-2.4 4.49 7.03 3.25 11.79-12.85a3.06 3.06 0 003.08-1.35 2.82 2.82 0 00-.21-3.28c-.38-.46-.89-.8-1.46-.98a3.06 3.06 0 00-3.23 1 2.84 2.84 0 00-.62 1.6z" fill="#FFB8B8"/><path d="M99.8 38.54l-10.41-3.65a3.8 3.8 0 01-2.17-1.92 3.62 3.62 0 01-.13-2.84 3.76 3.76 0 011.97-2.1 3.94 3.94 0 012.93-.14l10.41 3.65a1.29 1.29 0 01.72.64 1.2 1.2 0 01.05.95l-1.74 4.66c-.11.31-.35.57-.66.7-.3.14-.65.16-.97.05z" fill="#CCC"/><path d="M92.18 74.08h3.47l1.66-13.03h-5.13v13.03z" fill="#FFB8B8"/><path d="M102.36 77.22H91.43v-4.1h6.7c1.13 0 2.2.43 3 1.2.79.77 1.23 1.8 1.23 2.9z" fill="#2F2E41"/><path d="M83.58 69.72l2.84 1.94 9.08-9.73-4.2-2.87-7.72 10.66z" fill="#FFB8B8"/><path d="M89.71 77.3l-8.94-6.1 2.43-3.36 5.49 3.75a4 4 0 011.03 5.71z" fill="#2F2E41"/><path d="M99.79 50.61s8.68-1 7.12 4.48C105.35 60.56 88 65.28 88 65.28l11.8-14.67zM93.81 22.7a6.87 6.87 0 006.97-6.77 6.87 6.87 0 00-6.97-6.77 6.87 6.87 0 00-6.97 6.77 6.87 6.87 0 006.97 6.77z" fill="#FFB8B8"/><path d="M71.59 64.16c-3.97-4.48-5.36-11.37.97-17.09a20.9 20.9 0 015.24-3.38l5.1-13.84a7.57 7.57 0 012.78-3.6 7.92 7.92 0 014.4-1.42 7.6 7.6 0 014.34 1.14c1.29.81 2.3 1.99 2.87 3.37.62 1.4.7 2.98.2 4.43A70.23 70.23 0 0191.54 47l.27 2.04 12.88 1.12-.12.19c-.06.1-6.37 9.42-14.44 15.62a13.5 13.5 0 01-8.3 2.99c-4.08 0-7.8-2.02-10.24-4.79z" fill="#CCC"/><path d="M70.37 18.05c1.23-1.42 1.76-3.29 2.19-5.1.67-2.88 1.2-5.85 2.69-8.41 1.5-2.57 4.24-4.7 7.27-4.53 3.01.16 5.45 2.51 6.74 5.2a2.46 2.46 0 011.95.08c.93.5 1.28 1.9.5 2.61a6.6 6.6 0 015.25-.13 6.3 6.3 0 012.67 2.1c.68.91 1.09 2 1.17 3.13a3.27 3.27 0 01-.92 2.51c-1.34 1.34-3.23.88-4.91.54-1.59-.32-3.52-.4-4.42 1.06a2.68 2.68 0 00-.27 2.01c.34 1.47 1.46 2.5 2.54 3.47l.18.32c-3.83.73-8.02-1.81-9.02-5.48-1-3.66 1.32-7.89 5.02-9.1a1.41 1.41 0 01-1.23-.66 1.31 1.31 0 01-.01-1.36 6.72 6.72 0 00-3.36-.81c-1.9.12-3.56 1.44-4.55 3.03-1 1.59-1.44 3.43-1.9 5.23-.45 1.8-.95 3.64-2.01 5.19a8.4 8.4 0 01-2.87 2.6 8.69 8.69 0 01-10.75-1.92 6.97 6.97 0 008.05-1.58z" fill="#2F2E41"/><path d="M121.56 36.5c5.6 0 10.13-4.4 10.13-9.84 0-5.43-4.54-9.84-10.13-9.84-5.6 0-10.13 4.4-10.13 9.84 0 5.43 4.53 9.84 10.13 9.84z" fill="#03C1CF"/><path d="M121.25 32.2a.42.42 0 01-.13-.3v-10.9c0-.11.04-.22.13-.3a.45.45 0 01.62 0c.08.08.13.19.13.3V31.9a.42.42 0 01-.27.4.45.45 0 01-.48-.1z" fill="#fff"/><path d="M115.64 26.75a.42.42 0 01.07-.66.45.45 0 01.24-.07h11.21c.12 0 .23.04.32.12.08.08.13.2.13.3 0 .12-.05.23-.13.3a.45.45 0 01-.32.13h-11.2a.45.45 0 01-.32-.12z" fill="#fff"/><path d="M114.6 33.24c-.07.13-.13.27-.18.42l-13.6 3.5-2.42-2.35-4.13 3.08 4.94 5.84 16.29-6.76a3.04 3.04 0 004.5-1.3 2.81 2.81 0 00-.77-3.2 3.02 3.02 0 00-4.63.77z" fill="#FFB8B8"/><path d="M95.06 40.62l-7.82-7.6a3.72 3.72 0 01-1.13-2.63 3.63 3.63 0 011.12-2.63 3.84 3.84 0 012.71-1.09 3.93 3.93 0 012.71 1.1l7.83 7.6a1.24 1.24 0 01.37.87 1.2 1.2 0 01-.37.88l-3.61 3.5a1.3 1.3 0 01-1.8 0z" fill="#CCC"/></g><defs><clipPath id="clip0"><path fill="#fff" d="M0 0h339v238H0z"/></clipPath></defs></svg>