<svg width="274" height="194" fill="none" xmlns="http://www.w3.org/2000/svg"><g clip-path="url(#clip0)"><path opacity=".05" d="M272.7 63.33c-3.78 13.12-14.82 22.31-26.33 30.11-1.6 1.1-3.22 2.16-4.83 3.2l-.03.02-.23.15-.99.64.18.08s.18.1-.01.02l-.18-.07c-6.69-2.7-13.5-5.6-18.62-10.66-5.32-5.25-8.42-13.49-5.54-20.39a13.14 13.14 0 012.17-3.53 14.1 14.1 0 0124.23 4.3c.84-7.9-5.65-14.5-11.9-19.36-6.25-4.87-13.36-10.18-14.56-18.01-.68-4.37.84-8.6 3.6-11.98l.25-.31a20.58 20.58 0 0113.24-7.1c9.58-1 18.9 4.08 25.86 10.75 11.2 10.73 17.98 27.22 13.69 42.14z" fill="#000"/><path d="M254.68 46.16a35.05 35.05 0 014.2 9.26c.79 2.92 1.14 5.95 1.04 8.98a39 39 0 01-5.1 17.74 56.08 56.08 0 01-8.45 11.3c-1.6 1.1-3.22 2.16-4.83 3.2l-.03.02-.23.15-.99.64s.36.17.17.1l-.18-.07a31.03 31.03 0 00-9.91-26.7 31.23 31.23 0 00-12.83-6.91c.23-.33.49-.65.75-.97 1.84.52 3.62 1.2 5.34 2.03a31.75 31.75 0 0114.35 13.84 32.5 32.5 0 013.54 17.83c.27-.25.55-.5.81-.76 5.09-4.74 9.6-10.18 12.66-16.47a36.3 36.3 0 003.79-17.15c-.25-6.48-2.83-12.48-6.57-17.7-4-5.6-9.01-10.55-14.37-14.83a86.12 86.12 0 00-17.87-11.05.62.62 0 01-.31-.8.52.52 0 01.25-.3.46.46 0 01.4.02 87.14 87.14 0 0120.35 13c5.3 4.52 10.3 9.69 14.02 15.6z" fill="#fff"/><path d="M211.01 138.48a14.03 14.03 0 10-.01-28.05 14.03 14.03 0 00.01 28.05z" fill="#2F2E41"/><path d="M200.07 116.88c2.27-2.27 2.72-5.48 1.03-7.19-1.7-1.7-4.92-1.24-7.18 1.03-2.27 2.27-2.73 5.48-1.03 7.19 1.7 1.7 4.92 1.24 7.18-1.03zM225.62 112.42c.95-2.2-.68-5.02-3.62-6.28-2.95-1.26-6.1-.49-7.04 1.72-.95 2.21.67 5.03 3.62 6.29 2.95 1.26 6.1.48 7.04-1.73z" fill="#2F2E41"/><path d="M240.7 184.7a52.31 52.31 0 01-7.6 4.39l-.4-.7-3.76-6.6-.33-.58-1.92-3.38-6.07-10.67-3.12-5.48 9.26-6.5 3.6 7.62 1.96 4.14 8.04 17.03.34.72z" fill="#FFB8B8"/><path d="M232.43 158.95l-1.17-1.82-5.13-8.07a6.48 6.48 0 00-11.85 5.27l3.17 11.32a2.33 2.33 0 003.17 1.5h.03l9.72-4.35 1.04-.47a2.35 2.35 0 001.02-3.38z" fill="#03C1CF"/><path d="M204.52 159.2l-2.7 6.11-.6 1.33-10 22.63-.32.72a51.97 51.97 0 01-7.8-4.06l.27-.76 8.17-23.07 2-5.66 4.4 1.1 6.58 1.66zM221.9 133.5a11.9 11.9 0 10-20.88-11.42 11.9 11.9 0 1020.88 11.42z" fill="#FFB8B8"/><path d="M232.2 161.76a25.83 25.83 0 00-8.39-16.47 7.05 7.05 0 00-4.72-1.8h-16.76a7.05 7.05 0 00-6.31 10.22l1.91 3.83 3.88 7.77.94 1.86 4.14 8.31.33.66 21.07 5.8.09-.2.23-.53.34-.78a41.21 41.21 0 003.37-13.49c.1-1.72.07-3.46-.12-5.18z" fill="#03C1CF"/><path d="M205.37 145.66a6.47 6.47 0 00-8.6 3.1l-1.49 2.25-5 7.54a2.34 2.34 0 00.96 3.41l.3.14 9.69 4.54.69.32c.26.12.54.2.83.21a2.3 2.3 0 001.91-.78c.22-.26.39-.55.48-.87l3.36-11.23a6.5 6.5 0 00-3.13-8.63z" fill="#03C1CF"/><path d="M228.95 180.43a2.12 2.12 0 00-.34-.7 9.04 9.04 0 00-1.92-1.9c-2.55-1.93-7.62-4.19-17.41-4.25h-.02a2.33 2.33 0 00-2.12 1.37l-.25.53-1.55 3.43c-.13.3-.34.55-.61.73a23.37 23.37 0 00-8.44 12.26c9.9 2.9 20.43 2.8 30.27-.28l.22-.9 2.16-8.93.04-.15c.1-.4.09-.82-.03-1.21zM198.96 120.3a16.17 16.17 0 009.24 2.87 9.9 9.9 0 01-3.93 1.61c4.4.95 8.93.97 13.33.08a8.61 8.61 0 002.8-.96 3.54 3.54 0 001.71-2.3c.3-1.68-1-3.2-2.36-4.22a17.43 17.43 0 00-14.64-2.93c-1.64.42-3.27 1.14-4.34 2.45-1.06 1.32-1.37 3.34-.36 4.7l-1.45-1.3z" fill="#2F2E41"/><path d="M215.37 12.1H.43v.85h214.94v-.86zM7.75 9.06a2.59 2.59 0 100-5.18 2.59 2.59 0 000 5.18zM15.18 9.06a2.59 2.59 0 100-5.18 2.59 2.59 0 000 5.18zM22.61 9.06a2.59 2.59 0 100-5.18 2.59 2.59 0 000 5.18z" fill="#3F3D56"/><path d="M168.82 62.13h-122a2.76 2.76 0 010-5.53h122a2.76 2.76 0 110 5.53z" fill="#CCC"/><path d="M168.82 91.88h-122a2.76 2.76 0 010-5.53h122a2.76 2.76 0 110 5.53zM168.82 103.3h-122a2.76 2.76 0 110-5.54h122a2.76 2.76 0 010 5.53z" fill="#E6E6E6"/><path d="M148.95 50.37H66.7a2.76 2.76 0 010-5.53h82.25a2.77 2.77 0 010 5.53z" fill="#CCC"/><path d="M89.84 80.47H46.98a2.76 2.76 0 110-5.54h42.86a2.76 2.76 0 010 5.54zM168.97 80.47h-42.85a2.76 2.76 0 01-1.95-4.73 2.76 2.76 0 011.95-.8h42.85a2.76 2.76 0 110 5.53z" fill="#E6E6E6"/><path d="M212.78 0H3.01A3.02 3.02 0 000 3.02V145.3a3.02 3.02 0 003.01 3.01h156.87l-.1-.86H3a2.16 2.16 0 01-2.15-2.15V3.02A2.16 2.16 0 013.01.86h209.77a2.16 2.16 0 012.16 2.16v87.2l.86.07V3.02A3.02 3.02 0 00212.78 0z" fill="#3F3D56"/><path d="M159.88 148.31l-.1-.86-.02-.13c-.12-1.04-.2-2.1-.25-3.16-.22.92-.42 1.84-.6 2.76a13.6 13.6 0 00.06.53l.1.86c.12.89.25 1.76.41 2.63l.01-.1a54.88 54.88 0 01.39-2.53zM215.8 89.5l-.86-.07h-.13a52.29 52.29 0 00-53.55 35.91 52.43 52.43 0 00-1.78 25.6 52.62 52.62 0 0035.6 40.6 46.4 46.4 0 002.97.85 52 52 0 0042.65-7.69 52.32 52.32 0 0022.59-43.06c0-27.24-20.9-49.69-47.49-52.14zm24.56 94.48a51.27 51.27 0 01-49.14 5.3 51.66 51.66 0 01-31.34-40.96l-.1-.86-.02-.13a51.25 51.25 0 01-.31-5.69 51.65 51.65 0 0115.1-36.44 51.55 51.55 0 0140.26-14.98h.13l.86.08a51.58 51.58 0 0124.56 93.68zm-47.47 5.96a51.66 51.66 0 01-33.01-41.6c-.15.83-.28 1.67-.39 2.5v.1a52.62 52.62 0 0033.9 40.03l-.5-1.03zm21.92-100.52a52.29 52.29 0 00-53.55 35.91 52.43 52.43 0 00-2.29 22.13h.8l-.01-.13a51.25 51.25 0 01-.31-5.69 51.65 51.65 0 0115.1-36.44 51.56 51.56 0 0140.26-14.98h.13v-.79h-.13z" fill="#3F3D56"/><path d="M253.5 102.67c16.06.28 16.06 24.2 0 24.47-16.08-.27-16.07-24.2 0-24.47z" fill="#03C1CF"/><path d="M253.5 121.57a.86.86 0 01-.87-.86v-4.56a.38.38 0 00-.38-.38h-4.55a.85.85 0 01-.86-.86.86.86 0 01.86-.86h4.55a.38.38 0 00.38-.38v-4.56a.86.86 0 011.72 0v4.56c0 .1.04.2.11.27.08.07.17.1.28.1h4.55a.86.86 0 010 1.73h-4.56a.38.38 0 00-.38.38v4.56a.86.86 0 01-.86.86z" fill="#fff"/></g><defs><clipPath id="clip0"><path fill="#fff" d="M0 0h274v194H0z"/></clipPath></defs></svg>